<svg width="175" height="36" viewBox="0 0 175 36" fill="none" xmlns="http://www.w3.org/2000/svg">
<path d="M16.52 0.919998C20.808 0.919998 24.504 2.28 27.608 5L23.624 9.176C22.44 8.28 21.336 7.64 20.312 7.256C19.32 6.84 18.168 6.632 16.856 6.632C14.392 6.632 12.424 7.608 10.952 9.56C9.48 11.48 8.744 14.408 8.744 18.344C8.744 22.6 9.304 25.624 10.424 27.416C11.544 29.176 13.288 30.056 15.656 30.056C17.32 30.056 18.824 29.688 20.168 28.952V21.416H15.848L15.08 15.848H27.8V32.312C26.072 33.432 24.168 34.296 22.088 34.904C20.008 35.512 17.928 35.816 15.848 35.816C10.792 35.816 6.984 34.344 4.424 31.4C1.864 28.424 0.584 24.072 0.584 18.344C0.584 14.696 1.272 11.56 2.648 8.936C4.056 6.312 5.96 4.328 8.36 2.984C10.792 1.608 13.512 0.919998 16.52 0.919998ZM54.4175 35H47.8415L47.5055 31.784C45.6495 34.472 43.0735 35.816 39.7775 35.816C37.4415 35.816 35.6655 35.112 34.4495 33.704C33.2655 32.296 32.6735 30.328 32.6735 27.8V9.512H40.2575V26.84C40.2575 28.088 40.4495 28.968 40.8335 29.48C41.2495 29.96 41.8735 30.2 42.7055 30.2C44.3055 30.2 45.6815 29.208 46.8335 27.224V9.512H54.4175V35ZM69.3583 8.696C71.1823 8.696 72.8943 8.968 74.4943 9.512C76.0943 10.056 77.5023 10.824 78.7183 11.816L75.9343 16.088C73.8543 14.776 71.7583 14.12 69.6463 14.12C68.6543 14.12 67.8863 14.296 67.3423 14.648C66.8303 14.968 66.5743 15.432 66.5743 16.04C66.5743 16.52 66.6863 16.92 66.9103 17.24C67.1663 17.528 67.6623 17.832 68.3983 18.152C69.1343 18.472 70.2703 18.856 71.8063 19.304C74.4623 20.072 76.4303 21.08 77.7103 22.328C79.0223 23.544 79.6783 25.24 79.6783 27.416C79.6783 29.144 79.1823 30.648 78.1903 31.928C77.1983 33.176 75.8383 34.136 74.1103 34.808C72.3823 35.48 70.4623 35.816 68.3503 35.816C66.2063 35.816 64.2063 35.48 62.3503 34.808C60.5263 34.136 58.9743 33.208 57.6943 32.024L61.3903 27.896C63.5343 29.56 65.7903 30.392 68.1583 30.392C69.3103 30.392 70.2063 30.184 70.8463 29.768C71.5183 29.352 71.8543 28.76 71.8543 27.992C71.8543 27.384 71.7263 26.904 71.4703 26.552C71.2143 26.2 70.7183 25.88 69.9823 25.592C69.2463 25.272 68.0783 24.888 66.4783 24.44C63.9503 23.704 62.0623 22.68 60.8143 21.368C59.5663 20.056 58.9423 18.424 58.9423 16.472C58.9423 15 59.3583 13.688 60.1903 12.536C61.0543 11.352 62.2703 10.424 63.8383 9.752C65.4383 9.048 67.2783 8.696 69.3583 8.696ZM99.5694 33.8C98.6414 34.44 97.5534 34.936 96.3054 35.288C95.0894 35.64 93.8734 35.816 92.6574 35.816C87.0894 35.784 84.3054 32.712 84.3054 26.6V14.792H80.7054V9.512H84.3054V3.992L91.8894 3.128V9.512H97.7454L96.9294 14.792H91.8894V26.504C91.8894 27.688 92.0814 28.536 92.4654 29.048C92.8494 29.56 93.4574 29.816 94.2894 29.816C95.1534 29.816 96.0654 29.544 97.0254 29L99.5694 33.8ZM121.795 27.608C121.795 28.568 121.923 29.272 122.179 29.72C122.467 30.168 122.915 30.504 123.523 30.728L121.939 35.672C120.371 35.544 119.091 35.208 118.099 34.664C117.107 34.088 116.339 33.192 115.795 31.976C114.131 34.536 111.571 35.816 108.115 35.816C105.587 35.816 103.571 35.08 102.067 33.608C100.563 32.136 99.8105 30.216 99.8105 27.848C99.8105 25.064 100.835 22.936 102.883 21.464C104.931 19.992 107.891 19.256 111.763 19.256H114.355V18.152C114.355 16.648 114.035 15.624 113.395 15.08C112.755 14.504 111.635 14.216 110.035 14.216C109.203 14.216 108.195 14.344 107.011 14.6C105.827 14.824 104.611 15.144 103.363 15.56L101.635 10.568C103.235 9.96 104.867 9.496 106.531 9.176C108.227 8.856 109.795 8.696 111.234 8.696C114.883 8.696 117.555 9.448 119.251 10.952C120.947 12.456 121.795 14.712 121.795 17.72V27.608ZM110.323 30.392C112.051 30.392 113.395 29.576 114.355 27.944V23.432H112.483C110.755 23.432 109.459 23.736 108.595 24.344C107.763 24.952 107.347 25.896 107.347 27.176C107.347 28.2 107.603 29 108.115 29.576C108.659 30.12 109.395 30.392 110.323 30.392ZM149.068 9.512L141.052 35H132.076L123.868 9.512H132.124L136.636 29.24L141.34 9.512H149.068ZM162.407 8.696C166.311 8.696 169.367 9.896 171.575 12.296C173.783 14.664 174.887 17.992 174.887 22.28C174.887 25 174.375 27.384 173.351 29.432C172.359 31.448 170.919 33.016 169.031 34.136C167.175 35.256 164.967 35.816 162.407 35.816C158.535 35.816 155.479 34.632 153.239 32.264C151.031 29.864 149.927 26.52 149.927 22.232C149.927 19.512 150.423 17.144 151.415 15.128C152.439 13.08 153.879 11.496 155.735 10.376C157.623 9.256 159.847 8.696 162.407 8.696ZM162.407 14.264C160.871 14.264 159.719 14.92 158.951 16.232C158.183 17.512 157.799 19.512 157.799 22.232C157.799 25.016 158.167 27.048 158.903 28.328C159.671 29.608 160.839 30.248 162.407 30.248C163.943 30.248 165.095 29.608 165.863 28.328C166.631 27.016 167.015 25 167.015 22.28C167.015 19.496 166.631 17.464 165.863 16.184C165.127 14.904 163.975 14.264 162.407 14.264Z" fill="#1A0404"/>
</svg>
